. 
  
http://www.torrentday.com/        :     The Hottest Private Tracker On The Net!!!


               www . TorrentDay . Com 
(((((((((((((= Enjoy No RAR releases =))))))))))))))))))))


...................................NFO:....................................

.                                             
                               
                                 
                                      
                                      
                                       
    CoaX!<CPH>                         
                               
                         
                            
          
    Team FiCO <Final Coalition> 2k8 Presents:    
    

American.Radical.The.Trials.of.Norman.Finkelstein.2009.DVDRip.XviD-FiCO 
http://www.imdb.com/title/tt1475191/
Subtitles: None
Date: 2010.12

Director: David Ridgen, Nicolas Rossier
Genre: Documentary | History | Mystery
Plot: About the life and work of controversial American Jewish academic Norman 
Finkelstein. 

Cast
Credited cast:
Musa Abu-Hashhash 	Musa Abu-Hashhash 		
Nidal Barham 	Nidal Barham 		
Noam Chomsky 	Noam Chomsky 		
Alan M. Dershowitz 	Alan M. Dershowitz 		
Norman Finkelstein 	Norman Finkelstein 		
Richard Finkelstein 	Richard Finkelstein 		
Raul Hilberg 	Raul Hilberg 		
John Mearsheimer 	John Mearsheimer 		
David Olesker 	David Olesker 		
Len Rudner 	Len Rudner 		
Avi Shlaim 	Avi Shlaim 		
Maxine Tsvaigrach 	Maxine Tsvaigrach 		
Full cast and crew  


Stats:
General
Format                           : AVI
Format/Info                      : Audio Video Interleave
File size                        : 695 MiB
Duration                         : 1h 28mn
Overall bit rate                 : 1 093 Kbps
Writing application              : VirtualDubMod 1.5.10.2 (build 2542/release)
Writing library                  : VirtualDubMod build 2542/release

Video
ID                               : 0
Format                           : MPEG-4 Visual
Format profile                   : Advanced Simple@L5
Format settings, BVOP            : Yes
Format settings, QPel            : No
Format settings, GMC             : No warppoints
Format settings, Matrix          : Default (H.263)
Codec ID                         : XVID
Codec ID/Hint                    : XviD
Duration                         : 1h 28mn
Bit rate                         : 978 Kbps
Width                            : 576 pixels
Height                           : 304 pixels
Display aspect ratio             : 1.895
Frame rate                       : 29.970 fps
Resolution                       : 8 bits
Colorimetry                      : 4:2:0
Scan type                        : Progressive
Bits/(Pixel*Frame)               : 0.186
Stream size                      : 622 MiB (89%)
Writing library                  : XviD 1.2.1 (UTC 2008-12-04)

Audio
ID                               : 1
Format                           : MPEG Audio
Format version                   : Version 1
Format profile                   : Layer 3
Mode                             : Joint stereo
Format_Settings_ModeExtension    : MS Stereo
Codec ID                         : 55
Codec ID/Hint                    : MP3
Duration                         : 1h 28mn
Bit rate mode                    : Variable
Bit rate                         : 102 Kbps
Minimum bit rate                 : 32.0 Kbps
Channel(s)                       : 2 channels
Sampling rate                    : 48.0 KHz
Stream size                      : 64.6 MiB (9%)
Alignment                        : Aligned on interleaves
Interleave, duration             : 24 ms (0.72 video frame)
Interleave, preload duration     : 496 ms
Writing library                  : LAME3.98r
Encoding settings                : -m j -V 4 -q 0 -lowpass 17.5 --vbr-new -b 32




Release notes:
enjoy!


                                                                     
                                                             
                                                               
                                                               
                       
      
              Greetz from Team FiCO:               
              
                                                             
                                                             
           BLooDWeiSeR,CULTXviD,SiCK,DoNE,LAP,TH30R1STS              
                                                                             
               WinBeta, DvF, WASTE, BERC, KALEVALA, Jiggly                   
                                                                             
                                                             
                                       
                             
                      
                  
           
            
                    
                  
                
                            
                                        
                                        
                                            
                                                    
                                                              
                      you know where to find us...                     
                        
   NFO By: CoaXCable/CoolPHat <#CPH>